<?xml version="1.0" encoding="UTF-8" standalone="no"?>
<!-- Created with Inkscape (http://www.inkscape.org/) -->

<svg
   xmlns:dc="http://purl.org/dc/elements/1.1/"
   xmlns:cc="http://creativecommons.org/ns#"
   xmlns:rdf="http://www.w3.org/1999/02/22-rdf-syntax-ns#"
   xmlns:svg="http://www.w3.org/2000/svg"
   xmlns="http://www.w3.org/2000/svg"
   xmlns:sodipodi="http://sodipodi.sourceforge.net/DTD/sodipodi-0.dtd"
   xmlns:inkscape="http://www.inkscape.org/namespaces/inkscape"
   width="566"
   height="566"
   id="svg2"
   inkscape:label="Pozadí"
   version="1.1"
   inkscape:version="0.48.4 r9939"
   sodipodi:docname="gallery.svg">
  <defs
     id="defs3007" />
  <sodipodi:namedview
     id="base"
     pagecolor="#ffffff"
     bordercolor="#666666"
     borderopacity="1.0"
     inkscape:pageopacity="0.0"
     inkscape:pageshadow="2"
     inkscape:zoom="0.98994949"
     inkscape:cx="134.68993"
     inkscape:cy="284.18269"
     inkscape:document-units="px"
     inkscape:current-layer="layer1"
     showgrid="false"
     inkscape:window-width="1860"
     inkscape:window-height="1062"
     inkscape:window-x="-4"
     inkscape:window-y="-6"
     inkscape:window-maximized="1" />
  <metadata
     id="metadata3010">
    <rdf:RDF>
      <cc:Work
         rdf:about="">
        <dc:format>image/svg+xml</dc:format>
        <dc:type
           rdf:resource="http://purl.org/dc/dcmitype/StillImage" />
        <dc:title />
      </cc:Work>
    </rdf:RDF>
  </metadata>
  <g
     inkscape:label="Vrstva 1"
     inkscape:groupmode="layer"
     id="layer1"
     transform="translate(0,-486.36218)">
    <path
       style="opacity:1;fill:#000000;fill-opacity:1"
       d="M 43.4375 300.15625 L 43.4375 522.5625 L 265.84375 522.5625 L 265.84375 300.15625 L 43.4375 300.15625 z M 87.4375 344.5625 L 221.4375 344.5625 L 221.4375 478.5625 L 87.4375 478.5625 L 87.4375 344.5625 z "
       transform="translate(0,486.36218)"
       id="rect3763" />
    <path
       id="path3770"
       d="m 310,786.51843 0,222.40627 222.40625,0 0,-222.40627 -222.40625,0 z m 44,44.40625 134,0 0,134 -134,0 0,-134 z"
       style="fill:#000000;fill-opacity:1"
       inkscape:connector-curvature="0" />
    <path
       id="path3772"
       d="m 43.4375,519.95591 0,222.40625 222.40625,0 0,-222.40625 -222.40625,0 z m 44,44.40625 134,0 0,134 -134,0 0,-134 z"
       style="fill:#000000;fill-opacity:1"
       inkscape:connector-curvature="0" />
    <path
       inkscape:connector-curvature="0"
       style="fill:#000000;fill-opacity:1"
       d="m 310,519.95591 0,222.40627 222.40625,0 0,-222.40627 -222.40625,0 z m 44,44.40625 134,0 0,134 -134,0 0,-134 z"
       id="path3774" />
  </g>
</svg>
