<?xml version="1.0" encoding="UTF-8" standalone="no"?>
<!-- Created with Inkscape (http://www.inkscape.org/) -->

<svg
   xmlns:dc="http://purl.org/dc/elements/1.1/"
   xmlns:cc="http://creativecommons.org/ns#"
   xmlns:rdf="http://www.w3.org/1999/02/22-rdf-syntax-ns#"
   xmlns:svg="http://www.w3.org/2000/svg"
   xmlns="http://www.w3.org/2000/svg"
   xmlns:sodipodi="http://sodipodi.sourceforge.net/DTD/sodipodi-0.dtd"
   xmlns:inkscape="http://www.inkscape.org/namespaces/inkscape"
   width="566"
   height="566"
   id="svg2"
   inkscape:label="Pozadí"
   version="1.1"
   inkscape:version="0.48.4 r9939"
   sodipodi:docname="missing-image.svg"
   inkscape:export-filename="/home/dragon/public_html/LightFM/src/doc/SVG icons/28/file-image.png"
   inkscape:export-xdpi="4.4522967"
   inkscape:export-ydpi="4.4522967">
  <defs
     id="defs3007" />
  <sodipodi:namedview
     id="base"
     pagecolor="#ffffff"
     bordercolor="#666666"
     borderopacity="1.0"
     inkscape:pageopacity="0.0"
     inkscape:pageshadow="2"
     inkscape:zoom="1.4"
     inkscape:cx="309.21288"
     inkscape:cy="294.65264"
     inkscape:document-units="px"
     inkscape:current-layer="g3788"
     showgrid="false"
     inkscape:window-width="1860"
     inkscape:window-height="1062"
     inkscape:window-x="-4"
     inkscape:window-y="-6"
     inkscape:window-maximized="1"
     showguides="true"
     inkscape:guide-bbox="true">
    <sodipodi:guide
       orientation="0,1"
       position="-89.285714,543.57143"
       id="guide2987" />
    <sodipodi:guide
       orientation="0,1"
       position="-104.28571,23.571429"
       id="guide2989" />
    <sodipodi:guide
       orientation="1,0"
       position="23.392857,490.35715"
       id="guide2991" />
    <sodipodi:guide
       orientation="1,0"
       position="543.46207,593.9697"
       id="guide2993" />
  </sodipodi:namedview>
  <metadata
     id="metadata3010">
    <rdf:RDF>
      <cc:Work
         rdf:about="">
        <dc:format>image/svg+xml</dc:format>
        <dc:type
           rdf:resource="http://purl.org/dc/dcmitype/StillImage" />
        <dc:title />
      </cc:Work>
    </rdf:RDF>
  </metadata>
  <g
     inkscape:label="Vrstva 1"
     inkscape:groupmode="layer"
     id="layer1"
     transform="translate(0,-486.36218)">
    <g
       id="g3783"
       style="fill:#000000;fill-opacity:0.501845">
      <g
         id="g3788"
         style="fill:#000000;fill-opacity:1">
        <path
           style="fill:#aaaaaa;fill-opacity:1;stroke:none;opacity:0.50180505"
           d="m 43.571429,1007.7509 474.285721,0 -60.16992,-112.46334 -56.3501,79.70021 L 274.56006,838.17978 153.11666,969.2321 109.21651,909.46162 z"
           id="path3765"
           inkscape:connector-curvature="0" />
        <path
           sodipodi:type="arc"
           style="fill:#aaaaaa;fill-opacity:1;stroke:none;opacity:0.50180505"
           id="path3769"
           sodipodi:cx="404.28571"
           sodipodi:cy="202.42857"
           sodipodi:rx="51.428574"
           sodipodi:ry="51.428574"
           d="m 455.71428,202.42857 a 51.428574,51.428574 0 1 1 -102.85715,0 51.428574,51.428574 0 1 1 102.85715,0 z"
           transform="matrix(1.0858813,0,0,1.0858813,-31.863451,553.97735)" />
        <g
           id="g3009"
           style="fill:#aaaaaa;fill-opacity:1;opacity:0.50180505"
           transform="translate(-3.5714286,-17.857143)">
          <path
             sodipodi:type="arc"
             style="fill:#aaaaaa;fill-opacity:1;stroke:none"
             id="path2997"
             sodipodi:cx="404.28571"
             sodipodi:cy="202.42857"
             sodipodi:rx="51.428574"
             sodipodi:ry="51.428574"
             d="m 455.71428,202.42857 c 0,28.40322 -23.02536,51.42858 -51.42857,51.42858 -28.40322,0 -51.42858,-23.02536 -51.42858,-51.42858 0,-28.40321 23.02536,-51.42857 51.42858,-51.42857 28.40321,0 51.42857,23.02536 51.42857,51.42857 z"
             transform="matrix(0.84282575,0,0,1.0858813,-166.09958,398.26308)" />
          <path
             transform="matrix(1.0858813,0,0,0.76643687,-196.86345,469.35634)"
             d="m 455.71428,202.42857 c 0,28.40322 -23.02536,51.42858 -51.42857,51.42858 -28.40322,0 -51.42858,-23.02536 -51.42858,-51.42858 0,-28.40321 23.02536,-51.42857 51.42858,-51.42857 28.40321,0 51.42857,23.02536 51.42857,51.42857 z"
             sodipodi:ry="51.428574"
             sodipodi:rx="51.428574"
             sodipodi:cy="202.42857"
             sodipodi:cx="404.28571"
             id="path2999"
             style="fill:#aaaaaa;fill-opacity:1;stroke:none"
             sodipodi:type="arc" />
          <path
             sodipodi:type="arc"
             style="fill:#aaaaaa;fill-opacity:1;stroke:none"
             id="path3001"
             sodipodi:cx="404.28571"
             sodipodi:cy="202.42857"
             sodipodi:rx="51.428574"
             sodipodi:ry="51.428574"
             d="m 455.71428,202.42857 c 0,28.40322 -23.02536,51.42858 -51.42857,51.42858 -28.40322,0 -51.42858,-23.02536 -51.42858,-51.42858 0,-28.40321 23.02536,-51.42857 51.42858,-51.42857 28.40321,0 51.42857,23.02536 51.42857,51.42857 z"
             transform="matrix(1.0858813,0,0,0.76643687,-198.29202,517.92777)" />
          <path
             transform="matrix(0.84282575,0,0,1.0858813,-160.3853,461.12022)"
             d="m 455.71428,202.42857 c 0,28.40322 -23.02536,51.42858 -51.42857,51.42858 -28.40322,0 -51.42858,-23.02536 -51.42858,-51.42858 0,-28.40321 23.02536,-51.42857 51.42858,-51.42857 28.40321,0 51.42857,23.02536 51.42857,51.42857 z"
             sodipodi:ry="51.428574"
             sodipodi:rx="51.428574"
             sodipodi:cy="202.42857"
             sodipodi:cx="404.28571"
             id="path3003"
             style="fill:#aaaaaa;fill-opacity:1;stroke:none"
             sodipodi:type="arc" />
          <path
             sodipodi:type="arc"
             style="fill:#aaaaaa;fill-opacity:1;stroke:none"
             id="path3005"
             sodipodi:cx="404.28571"
             sodipodi:cy="202.42857"
             sodipodi:rx="51.428574"
             sodipodi:ry="51.428574"
             d="m 455.71428,202.42857 c 0,28.40322 -23.02536,51.42858 -51.42857,51.42858 -28.40322,0 -51.42858,-23.02536 -51.42858,-51.42858 0,-28.40321 23.02536,-51.42857 51.42858,-51.42857 28.40321,0 51.42857,23.02536 51.42857,51.42857 z"
             transform="matrix(1.0858813,0,0,0.76643687,-318.29202,482.21348)" />
          <path
             transform="matrix(1.0858813,0,0,0.76643687,-310.43488,525.07063)"
             d="m 455.71428,202.42857 c 0,28.40322 -23.02536,51.42858 -51.42857,51.42858 -28.40322,0 -51.42858,-23.02536 -51.42858,-51.42858 0,-28.40321 23.02536,-51.42857 51.42858,-51.42857 28.40321,0 51.42857,23.02536 51.42857,51.42857 z"
             sodipodi:ry="51.428574"
             sodipodi:rx="51.428574"
             sodipodi:cy="202.42857"
             sodipodi:cx="404.28571"
             id="path3007"
             style="fill:#aaaaaa;fill-opacity:1;stroke:none"
             sodipodi:type="arc" />
        </g>
        <path
           style="fill:none;stroke:#aaaaaa;stroke-width:30.87656021000000095;stroke-linecap:butt;stroke-linejoin:miter;stroke-miterlimit:4;stroke-opacity:1;stroke-dasharray:none;opacity:0.50180505"
           d="m 15.259708,502.08617 0,534.83773 535.621222,0 0,-534.83773 z"
           id="path3027"
           inkscape:connector-curvature="0" />
      </g>
    </g>
  </g>
</svg>
