<?xml version="1.0" encoding="UTF-8" standalone="no"?>
<!-- Created with Inkscape (http://www.inkscape.org/) -->

<svg
   xmlns:dc="http://purl.org/dc/elements/1.1/"
   xmlns:cc="http://creativecommons.org/ns#"
   xmlns:rdf="http://www.w3.org/1999/02/22-rdf-syntax-ns#"
   xmlns:svg="http://www.w3.org/2000/svg"
   xmlns="http://www.w3.org/2000/svg"
   xmlns:sodipodi="http://sodipodi.sourceforge.net/DTD/sodipodi-0.dtd"
   xmlns:inkscape="http://www.inkscape.org/namespaces/inkscape"
   width="566"
   height="566"
   id="svg2"
   inkscape:label="Pozadí"
   version="1.1"
   inkscape:version="0.48.4 r9939"
   sodipodi:docname="settings.svg"
   inkscape:export-filename="/home/dragon/public_html/LightFM/src/doc/SVG icons/34/file-text.png"
   inkscape:export-xdpi="5.4063606"
   inkscape:export-ydpi="5.4063606">
  <sodipodi:namedview
     id="base"
     pagecolor="#ffffff"
     bordercolor="#666666"
     borderopacity="1.0"
     inkscape:pageopacity="0.0"
     inkscape:pageshadow="2"
     inkscape:zoom="0.085838136"
     inkscape:cx="-2035.5193"
     inkscape:cy="-1830.3423"
     inkscape:document-units="px"
     inkscape:current-layer="svg2"
     showgrid="false"
     inkscape:window-width="1860"
     inkscape:window-height="1062"
     inkscape:window-x="-4"
     inkscape:window-y="-6"
     inkscape:window-maximized="1"
     showguides="true"
     inkscape:guide-bbox="true" />
  <defs
     id="defs3007" />
  <metadata
     id="metadata3010">
    <rdf:RDF>
      <cc:Work
         rdf:about="">
        <dc:format>image/svg+xml</dc:format>
        <dc:type
           rdf:resource="http://purl.org/dc/dcmitype/StillImage" />
        <dc:title />
      </cc:Work>
    </rdf:RDF>
  </metadata>
  <g
     transform="translate(0,-486.36218)"
     id="layer1"
     inkscape:groupmode="layer"
     inkscape:label="Vrstva 1">
    <path
       inkscape:transform-center-y="-5.2951131"
       inkscape:transform-center-x="99.548125"
       inkscape:connector-curvature="0"
       id="path3162"
       d="m 458.72859,552.71697 -30.00497,-0.87397 -39.86192,64.53766 15.93715,29.59036 -159.98113,259.01434 -21.20694,-0.63007 -34.16736,55.31801 14.47018,26.89454 14.78987,-23.9453 15.9501,-25.82368 40.1176,-10.71754 8.399,40.68399 -15.95009,25.82373 -15.60336,25.26236 33.65076,1.008 34.16738,-55.31803 -10.8104,-20.07032 159.98112,-259.01427 32.03649,0.96543 39.86192,-64.53768 -14.22823,-26.41698 -27.16585,43.98234 -48.75427,3.35476 -18.80624,-45.08375 27.17919,-44.00393 z"
       style="fill:#888888;fill-opacity:1;stroke:none" />
  </g>
  <g
     id="g4064"
     inkscape:label="Gear7"
     transform="matrix(9.8246172,0,0,9.8246172,157.47133,173.92076)"
     style="stroke:none;fill:#888888;fill-opacity:1">
    <path
       id="path4066"
       style="fill:#888888;fill-opacity:1;stroke:none"
       d="M 7.5223053,-2.5370284 9.277,-2.649 l 1.585,0.17 c -0.0019,4.9868345 -6.39e-4,-0.057351 0,4.958 L 9.277,2.649 7.6705278,2.7037787 6.8125006,4.1938603 7.856,5.602 8.71,6.946 c -3.9084486,3.145221 0.00728,0.01085 -3.876,3.092 L 3.713,8.905 2.766555,7.3079444 0.78002841,7.7236663 0.518,9.634 0,11.141 c -4.8644964,-1.08415 -0.02976347,0.0075 -4.834,-1.103 L -4.647,8.455 -4.0923894,6.7701941 -5.5939716,5.6410284 -7.209,6.412 -8.71,6.946 c -2.191124,-4.4256026 -0.015652,0.04354 -2.152,-4.467 L -9.508,1.638 -7.8049444,0.92486035 -7.9346391,-0.86927691 -9.508,-1.638 -10.862,-2.479 c 2.1474754,-4.4921658 -0.0057,-0.021686 2.152,-4.467 l 1.501,0.534 1.7239885,0.7805479 1.21513,-1.2722255 L -4.647,-8.455 -4.834,-10.038 C 0.02316645,-11.1593 -4.88385,-10.01942 0,-11.141 L 0.518,-9.634 0.90014681,-8.0404294 2.8261356,-7.4300613 3.713,-8.905 4.834,-10.038 c 3.856497,3.1062204 -0.027943,-0.01416 3.876,3.092 l -0.854,1.344 -1.1361385,1.4266675 z"
       inkscape:connector-curvature="0"
       sodipodi:nodetypes="ccccccccccccccccccccccccccccccccccccccccccc" />
  </g>
</svg>
